<?xml version="1.0" encoding="utf-8"?><!-- Uploaded to: SVG Repo, www.svgrepo.com, Generator: SVG Repo Mixer Tools -->
<svg fill="#000000" width="800px" height="800px" viewBox="0 0 24 24" id="bracket-square-2" data-name="Flat Color" xmlns="http://www.w3.org/2000/svg" class="icon flat-color"><rect id="primary" x="2" y="2" width="20" height="20" rx="2" style="fill: rgb(0, 0, 0);"></rect><path id="secondary" d="M15,18H14a1,1,0,0,1,0-2h1V13a2,2,0,0,1,.27-1A2,2,0,0,1,15,11V8H14a1,1,0,0,1,0-2h1a2,2,0,0,1,2,2v3a1,1,0,0,1,0,2v3A2,2,0,0,1,15,18Zm-4-1a1,1,0,0,0-1-1H9V13a2,2,0,0,0-.27-1A2,2,0,0,0,9,11V8h1a1,1,0,0,0,0-2H9A2,2,0,0,0,7,8v3a1,1,0,0,0,0,2v3a2,2,0,0,0,2,2h1A1,1,0,0,0,11,17Z" style="fill: rgb(44, 169, 188);"></path></svg>