<svg width="22" height="16" viewBox="0 0 22 16" fill="none" xmlns="http://www.w3.org/2000/svg">
<path d="M8.09062 13.32L8.60662 11.964L1.97062 8.64V7.44L7.13062 4.86V5.94L3.41062 7.752C3.27462 7.824 3.15062 7.884 3.03862 7.932C2.92662 7.98 2.84262 8.012 2.78662 8.028C2.84262 8.044 2.92662 8.076 3.03862 8.124C3.15062 8.172 3.27462 8.232 3.41062 8.304L8.94262 11.064L12.3506 2.04H13.4906L12.7586 3.996L19.6106 7.44V8.64L14.4506 11.22V10.176L18.1706 8.352C18.3226 8.28 18.4626 8.22 18.5906 8.172C18.7266 8.116 18.8266 8.08 18.8906 8.064C18.8186 8.048 18.7146 8.016 18.5786 7.968C18.4426 7.912 18.3066 7.848 18.1706 7.776L12.4106 4.896L9.23062 13.32H8.09062Z" fill="#008DA9"/>
</svg>
